<?xml version="1.0" encoding="UTF-8" standalone="no"?>
<!DOCTYPE svg PUBLIC "-//W3C//DTD SVG 1.1//EN" "http://www.w3.org/Graphics/SVG/1.1/DTD/svg11.dtd">
<svg width="100%" height="100%" viewBox="0 0 48 48" version="1.1" xmlns="http://www.w3.org/2000/svg" xmlns:xlink="http://www.w3.org/1999/xlink" xml:space="preserve" xmlns:serif="http://www.serif.com/" style="fill-rule:evenodd;clip-rule:evenodd;stroke-linejoin:round;stroke-miterlimit:2;">
    <g transform="matrix(1,0,0,1,-979.908,-959.076)">
        <g id="Affinity-Photo" serif:id="Affinity Photo" transform="matrix(1,0,0,1,582.052,-165.336)">
            <g transform="matrix(1,0,0,1,397.856,1124.41)">
                <path d="M48,11.25L48,36.75C48,42.959 42.959,48 36.75,48L11.25,48C5.041,48 0,42.959 0,36.75L0,11.25C0,5.041 5.041,0 11.25,0L36.75,0C42.959,0 48,5.041 48,11.25Z" style="fill:rgb(78,49,136);"/>
            </g>
            <g id="path260" transform="matrix(0.139891,0,0,0.139891,231.86,1058.82)">
                <path d="M1389.55,787.835C1389.55,787.436 1312.05,652.992 1311.45,652.337C1311.19,652.063 1239.31,775.773 1238.52,777.857C1238.32,778.368 1238.88,778.925 1240.74,780.054C1247.22,783.989 1256.24,786.935 1264.42,787.785C1269.32,788.295 1389.55,788.343 1389.55,787.835L1389.55,787.835ZM1450.76,787.837C1465.43,786.511 1477.92,780.627 1488.16,770.217C1495.88,762.379 1501.66,751.673 1503.81,741.24C1505.02,735.396 1505.26,730.045 1505.27,708.547L1505.29,687.552L1344.88,687.552L1350.01,696.43C1352.83,701.313 1365.91,723.969 1379.09,746.776L1403.04,788.243L1424.81,788.229C1436.79,788.221 1448.46,788.045 1450.76,787.837L1450.76,787.837ZM1277.17,688.332C1303.48,642.801 1325.06,605.387 1325.14,605.188C1325.22,604.988 1314.13,604.827 1300.23,604.827L1275.19,604.827L1243.13,660.291L1211.07,715.755L1211.29,725.573C1211.53,736.034 1212.07,740.254 1213.93,746.202C1215.98,752.787 1219.47,759.601 1223.27,764.457C1225.52,767.338 1228.83,771.114 1229.1,771.114C1229.23,771.114 1250.86,733.862 1277.17,688.332L1277.17,688.332ZM1374.81,675.442C1379.09,673.936 1380.31,672.491 1387.13,660.792C1396.15,645.325 1396.66,644.244 1396.65,640.606C1396.64,636.865 1396.53,636.623 1388.07,621.957C1383.06,613.28 1380.91,609.943 1379.26,608.325C1375.74,604.859 1375.54,604.826 1358.04,604.831L1342.97,604.834L1340.78,605.853C1337.15,607.544 1335.53,609.702 1327.79,623.148C1317.27,641.416 1317.28,639.771 1327.66,657.739C1335.65,671.568 1335.92,671.973 1337.96,673.534C1341.32,676.096 1342.38,676.239 1358.12,676.256C1371.36,676.27 1372.62,676.208 1374.81,675.441L1374.81,675.442ZM1505.27,614.541C1505.26,580.589 1505.09,550.93 1504.88,548.632C1503.68,535.415 1499.07,524.584 1490.3,514.396C1488.61,512.43 1487.1,510.825 1486.96,510.83C1486.77,510.836 1409.45,644.415 1392.36,674.251L1391.21,676.272L1505.29,676.272L1505.27,614.541ZM1441.82,566.203C1461.44,532.206 1477.55,504.182 1477.62,503.928C1477.68,503.674 1476.36,502.677 1474.68,501.713C1468.21,498.013 1459.82,495.38 1451.81,494.539C1449.39,494.285 1426.62,494.12 1393.48,494.116L1339.12,494.107L1336.28,499.016C1334.71,501.716 1333.43,504.14 1333.43,504.402C1333.43,504.665 1349.57,532.825 1369.3,566.981C1397.26,615.393 1405.27,628.965 1405.65,628.548C1405.92,628.254 1422.19,600.198 1441.82,566.201L1441.82,566.203ZM1370.87,592.188C1370.43,591.442 1360.33,573.949 1348.41,553.316C1336.5,532.683 1326.62,515.95 1326.46,516.131C1326.3,516.313 1316.52,533.194 1304.72,553.646C1292.93,574.097 1282.91,591.442 1282.48,592.188L1281.68,593.546L1371.67,593.546L1370.87,592.188Z" style="fill:url(#_Linear1);fill-rule:nonzero;"/>
            </g>
        </g>
    </g>
    <defs>
        <linearGradient id="_Linear1" x1="0" y1="0" x2="1" y2="0" gradientUnits="userSpaceOnUse" gradientTransform="matrix(1.80054e-14,-294.051,294.051,1.80054e-14,1358.18,788.161)"><stop offset="0" style="stop-color:rgb(214,107,240);stop-opacity:1"/><stop offset="0.21" style="stop-color:rgb(227,126,246);stop-opacity:1"/><stop offset="0.43" style="stop-color:rgb(240,146,252);stop-opacity:1"/><stop offset="1" style="stop-color:rgb(246,156,255);stop-opacity:1"/></linearGradient>
    </defs>
</svg>
