<?xml version="1.0" encoding="UTF-8" standalone="no"?>
<!DOCTYPE svg PUBLIC "-//W3C//DTD SVG 1.1//EN" "http://www.w3.org/Graphics/SVG/1.1/DTD/svg11.dtd">
<svg width="100%" height="100%" viewBox="0 0 48 48" version="1.1" xmlns="http://www.w3.org/2000/svg" xmlns:xlink="http://www.w3.org/1999/xlink" xml:space="preserve" xmlns:serif="http://www.serif.com/" style="fill-rule:evenodd;clip-rule:evenodd;stroke-linejoin:round;stroke-miterlimit:2;">
    <g transform="matrix(1,0,0,1,-920.305,-959.076)">
        <g id="Affinity-Publisher" serif:id="Affinity Publisher" transform="matrix(1,0,0,1,594.452,-165.336)">
            <g transform="matrix(1,0,0,1,325.853,1124.41)">
                <path d="M48,11.25L48,36.75C48,42.959 42.959,48 36.75,48L11.25,48C5.041,48 0,42.959 0,36.75L0,11.25C0,5.041 5.041,0 11.25,0L36.75,0C42.959,0 48,5.041 48,11.25Z" style="fill:rgb(137,26,39);"/>
            </g>
            <g id="path246" transform="matrix(0.15576,0,0,0.15576,213.813,1050.99)">
                <path d="M859.217,758.015C859.217,757.752 841.775,727.365 820.457,690.489C790.058,637.906 781.507,623.649 780.817,624.405C780.334,624.934 770.569,641.568 759.117,661.368L738.296,697.368L738.761,703.024C740.876,728.756 759.717,750.788 784.907,756.985C790.016,758.243 794.067,758.39 824.904,758.439C843.776,758.468 859.217,758.278 859.217,758.015ZM907.728,743.973C903.115,735.987 879.26,694.657 854.717,652.128C830.173,609.599 809.923,574.794 809.717,574.783C809.204,574.758 787.217,612.74 787.217,613.652C787.217,614.053 805.977,646.806 828.906,686.437L870.596,758.493L916.113,758.493L907.728,743.973ZM960.842,756.007C964.142,754.902 967.275,753.717 967.804,753.374C968.524,752.906 967.181,750.027 962.468,741.933C956.224,731.21 946.379,714.184 875.007,590.68C854.685,555.515 837.841,526.749 837.575,526.755C837.309,526.761 832.122,535.379 826.048,545.903L815.004,565.038L866.088,653.328C894.184,701.888 919.382,745.445 922.083,750.123L926.993,758.629L940.918,758.323C953.559,758.045 955.394,757.832 960.842,756.007ZM981.722,744.554C989.787,737.914 997.239,726.908 1000.52,716.783L1001.77,712.949L938.519,603.533L875.269,494.118L856.356,493.699L849.724,505.124C846.076,511.407 843.152,516.744 843.225,516.983C843.298,517.222 861.808,549.3 884.357,588.267C906.907,627.235 936.885,679.101 950.974,703.524C965.064,727.948 976.806,747.945 977.068,747.962C977.33,747.979 979.424,746.445 981.722,744.554L981.722,744.554ZM1002.44,543.282C998.784,521.747 981.262,502.658 958.938,495.889C953.55,494.256 952.087,494.183 919.702,493.925C896.532,493.741 886.145,493.902 886.327,494.441C886.473,494.872 912.748,540.427 944.717,595.674L1002.84,696.123L1003.05,622.121C1003.2,571.012 1003.01,546.622 1002.44,543.282L1002.44,543.282Z" style="fill:url(#_Linear1);fill-rule:nonzero;"/>
            </g>
        </g>
    </g>
    <defs>
        <linearGradient id="_Linear1" x1="0" y1="0" x2="1" y2="0" gradientUnits="userSpaceOnUse" gradientTransform="matrix(1.52796e-14,-249.534,249.534,1.52796e-14,883.848,758.493)"><stop offset="0" style="stop-color:rgb(255,145,75);stop-opacity:1"/><stop offset="1" style="stop-color:rgb(255,165,101);stop-opacity:1"/></linearGradient>
    </defs>
</svg>
