<?xml version="1.0" encoding="UTF-8" standalone="no"?>
<!DOCTYPE svg PUBLIC "-//W3C//DTD SVG 1.1//EN" "http://www.w3.org/Graphics/SVG/1.1/DTD/svg11.dtd">
<svg width="100%" height="100%" viewBox="0 0 48 48" version="1.1" xmlns="http://www.w3.org/2000/svg" xmlns:xlink="http://www.w3.org/1999/xlink" xml:space="preserve" xmlns:serif="http://www.serif.com/" style="fill-rule:evenodd;clip-rule:evenodd;stroke-linejoin:round;stroke-miterlimit:2;">
    <g transform="matrix(1,0,0,1,-861.35,-959.076)">
        <g id="Affinity-Designer" serif:id="Affinity Designer" transform="matrix(1,0,0,1,602.462,-165.336)">
            <g transform="matrix(1,0,0,1,258.888,1124.41)">
                <path d="M48,11.25L48,36.75C48,42.959 42.959,48 36.75,48L11.25,48C5.041,48 0,42.959 0,36.75L0,11.25C0,5.041 5.041,0 11.25,0L36.75,0C42.959,0 48,5.041 48,11.25Z" style="fill:rgb(21,72,129);"/>
            </g>
            <g transform="matrix(1.91605,0,0,1.91605,236.85,1102.47)">
                <path d="M30.971,34.633C30.503,34.76 30.331,34.767 27.2,34.791C24.519,34.811 23.907,34.801 23.854,34.734C23.773,34.631 19.622,27.271 19.622,27.271L34.814,27.271L34.784,28.849C34.749,30.702 34.689,31.046 34.247,31.957C33.733,33.015 33.042,33.717 32.012,34.227C31.709,34.378 31.24,34.56 30.971,34.633ZM22.967,34.753C22.991,34.816 18.247,34.808 17.586,34.744C15.25,34.52 13.324,32.557 13.136,30.209L13.099,29.748L17.586,22.002C20.054,17.741 22.223,14 22.406,13.689L22.739,13.122L26.356,13.122L26.235,13.321C26.09,13.558 18.679,26.565 18.571,26.772C18.501,26.903 18.673,27.226 20.721,30.808C21.945,32.949 22.956,34.724 22.967,34.753ZM25.097,26.276L25.249,26.536L23.454,26.527C21.769,26.505 21.43,26.509 20.909,26.376C20.387,26.242 20.258,26.079 20.3,25.61C20.32,25.385 20.404,25.121 20.544,24.845C20.882,24.181 22.366,21.604 22.402,21.618C22.421,21.625 23,22.617 23.691,23.823C24.381,25.029 25.014,26.133 25.097,26.276ZM34.768,21.973L34.768,26.506L26.112,26.537L24.89,24.408C22.925,20.984 22.855,20.86 22.855,20.803C22.855,20.773 23.829,19.039 25.02,16.95L27.184,13.153L28.679,13.136C30.368,13.116 30.788,13.162 31.547,13.447C33.069,14.019 34.194,15.288 34.63,16.922C34.768,17.438 34.768,17.463 34.768,21.973Z" style="fill:url(#_Linear1);"/>
            </g>
        </g>
    </g>
    <defs>
        <linearGradient id="_Linear1" x1="0" y1="0" x2="1" y2="0" gradientUnits="userSpaceOnUse" gradientTransform="matrix(9.84455e-16,-16.0774,16.0774,9.84455e-16,24.0278,34.7743)"><stop offset="0" style="stop-color:rgb(63,193,250);stop-opacity:1"/><stop offset="1" style="stop-color:rgb(113,223,255);stop-opacity:1"/></linearGradient>
    </defs>
</svg>
