<?xml version="1.0" encoding="UTF-8" standalone="no"?>
<!DOCTYPE svg PUBLIC "-//W3C//DTD SVG 1.1//EN" "http://www.w3.org/Graphics/SVG/1.1/DTD/svg11.dtd">
<svg width="100%" height="100%" viewBox="0 0 49 49" version="1.1" xmlns="http://www.w3.org/2000/svg" xmlns:xlink="http://www.w3.org/1999/xlink" xml:space="preserve" xmlns:serif="http://www.serif.com/" style="fill-rule:evenodd;clip-rule:evenodd;stroke-linejoin:round;stroke-miterlimit:2;">
    <g transform="matrix(1,0,0,1,-555.714,-1041.58)">
        <g id="CloudFlare" transform="matrix(1,0,0,1,555.818,1041.68)">
            <path d="M48,11.25L48,36.75C48,42.959 42.959,48 36.75,48L11.25,48C5.041,48 0,42.959 0,36.75L0,11.25C0,5.041 5.041,0 11.25,0L36.75,0C42.959,0 48,5.041 48,11.25Z" style="fill:white;stroke:rgb(207,207,207);stroke-width:0.21px;"/>
            <g>
                <path d="M14.813,32.203L39.629,32.203L39.629,25.336L34.915,22.632L34.102,22.281L14.813,22.413L14.813,32.203Z" style="fill:white;fill-rule:nonzero;"/>
                <path d="M31.045,31.291C31.276,30.5 31.188,29.775 30.804,29.236C30.452,28.741 29.858,28.455 29.145,28.423L15.615,28.247C15.527,28.247 15.451,28.202 15.407,28.137C15.362,28.071 15.352,27.984 15.374,27.895C15.418,27.763 15.55,27.665 15.693,27.654L29.343,27.478C30.96,27.401 32.718,26.093 33.332,24.49L34.112,22.457C34.147,22.373 34.155,22.281 34.136,22.193C33.257,18.214 29.706,15.247 25.464,15.247C21.55,15.247 18.233,17.775 17.045,21.282C16.275,20.711 15.287,20.404 14.242,20.502C12.362,20.69 10.843,22.194 10.67,24.074C10.624,24.541 10.658,25.013 10.768,25.469C9.29,25.51 7.885,26.126 6.854,27.187C5.823,28.247 5.248,29.669 5.25,31.148C5.25,31.423 5.273,31.699 5.305,31.972C5.329,32.105 5.438,32.203 5.569,32.203L30.539,32.203C30.611,32.202 30.68,32.178 30.738,32.134C30.795,32.091 30.837,32.03 30.858,31.962L31.045,31.291Z" style="fill:rgb(243,128,32);fill-rule:nonzero;"/>
                <path d="M35.353,22.597L34.978,22.609C34.89,22.609 34.814,22.675 34.779,22.761L34.252,24.596C34.021,25.388 34.109,26.113 34.493,26.652C34.844,27.146 35.439,27.432 36.152,27.465L39.032,27.641C39.119,27.641 39.196,27.686 39.24,27.751C39.285,27.817 39.295,27.915 39.273,27.993C39.229,28.125 39.097,28.223 38.954,28.234L35.954,28.41C34.328,28.487 32.579,29.795 31.965,31.398L31.745,31.958C31.7,32.068 31.778,32.179 31.897,32.179L42.206,32.179C42.266,32.179 42.324,32.16 42.372,32.125C42.42,32.089 42.454,32.038 42.47,31.98C42.653,31.331 42.747,30.659 42.75,29.984C42.744,28.025 41.963,26.148 40.577,24.764C39.19,23.379 37.312,22.601 35.353,22.598" style="fill:rgb(250,174,64);fill-rule:nonzero;"/>
            </g>
        </g>
    </g>
</svg>
