<?xml version="1.0" encoding="UTF-8" standalone="no"?>
<!DOCTYPE svg PUBLIC "-//W3C//DTD SVG 1.1//EN" "http://www.w3.org/Graphics/SVG/1.1/DTD/svg11.dtd">
<svg width="100%" height="100%" viewBox="0 0 49 49" version="1.1" xmlns="http://www.w3.org/2000/svg" xmlns:xlink="http://www.w3.org/1999/xlink" xml:space="preserve" xmlns:serif="http://www.serif.com/" style="fill-rule:evenodd;clip-rule:evenodd;stroke-miterlimit:2;">
    <g transform="matrix(1,0,0,1,-486.78,-1058.29)">
        <g id="Figma" transform="matrix(1,0,0,1,487.013,1058.52)">
            <path d="M48,11.25L48,36.75C48,42.959 42.959,48 36.75,48L11.25,48C5.041,48 0,42.959 0,36.75L0,11.25C0,5.041 5.041,0 11.25,0L36.75,0C42.959,0 48,5.041 48,11.25Z" style="fill:white;stroke:rgb(207,207,207);stroke-width:0.21px;"/>
            <g>
                <path d="M17.69,42.75C21.14,42.75 23.94,39.95 23.94,36.5L23.94,30.25L17.69,30.25C14.24,30.25 11.44,33.05 11.44,36.5C11.44,39.95 14.24,42.75 17.69,42.75Z" style="fill:rgb(112,112,112);fill-rule:nonzero;"/>
                <path d="M11.44,24C11.44,20.55 14.24,17.75 17.69,17.75L23.94,17.75L23.94,30.25L17.69,30.25C14.24,30.25 11.44,27.45 11.44,24Z" style="fill:rgb(186,186,186);fill-rule:nonzero;"/>
                <path d="M11.44,11.5C11.44,8.05 14.24,5.25 17.69,5.25L23.94,5.25L23.94,17.75L17.69,17.75C14.24,17.75 11.44,14.95 11.44,11.5Z" style="fill:rgb(164,164,164);fill-rule:nonzero;"/>
                <path d="M23.94,5.25L30.19,5.25C33.64,5.25 36.44,8.05 36.44,11.5C36.44,14.95 33.64,17.75 30.19,17.75L23.94,17.75L23.94,5.25Z" style="fill:rgb(198,198,198);fill-rule:nonzero;"/>
                <path d="M36.44,24C36.44,27.45 33.64,30.25 30.19,30.25C26.74,30.25 23.94,27.45 23.94,24C23.94,20.55 26.74,17.75 30.19,17.75C33.64,17.75 36.44,20.55 36.44,24Z" style="fill:rgb(152,152,152);fill-rule:nonzero;"/>
            </g>
        </g>
    </g>
</svg>
