<?xml version="1.0" encoding="UTF-8" standalone="no"?>
<!DOCTYPE svg PUBLIC "-//W3C//DTD SVG 1.1//EN" "http://www.w3.org/Graphics/SVG/1.1/DTD/svg11.dtd">
<svg width="100%" height="100%" viewBox="0 0 52 52" version="1.1" xmlns="http://www.w3.org/2000/svg" xmlns:xlink="http://www.w3.org/1999/xlink" xml:space="preserve" xmlns:serif="http://www.serif.com/" style="fill-rule:evenodd;clip-rule:evenodd;stroke-linejoin:round;stroke-miterlimit:2;">
    <g transform="matrix(1,0,0,1,-435.192,-1040.22)">
        <g>
            <g id="Git" transform="matrix(1,0,0,1,436.648,1041.68)">
                <g>
                    <path d="M48,11.25L48,36.75C48,42.959 42.959,48 36.75,48L11.25,48C5.041,48 0,42.959 0,36.75L0,11.25C0,5.041 5.041,0 11.25,0L36.75,0C42.959,0 48,5.041 48,11.25Z" style="fill:rgb(240,60,46);"/>
                    <g>
                        <path d="M42.042,22.33L25.67,5.958C25.446,5.734 25.18,5.556 24.887,5.434C24.594,5.313 24.28,5.25 23.962,5.25C23.645,5.25 23.331,5.313 23.038,5.434C22.745,5.556 22.479,5.734 22.255,5.958L18.857,9.356L23.169,13.669C24.172,13.317 25.321,13.557 26.12,14.357C26.5,14.738 26.766,15.218 26.886,15.743C27.007,16.268 26.977,16.816 26.801,17.325L30.957,21.482C31.963,21.135 33.123,21.359 33.926,22.164C34.193,22.431 34.404,22.748 34.549,23.096C34.693,23.445 34.767,23.819 34.767,24.196C34.767,24.574 34.693,24.947 34.548,25.296C34.404,25.645 34.192,25.961 33.925,26.228C33.658,26.495 33.341,26.707 32.993,26.851C32.644,26.996 32.27,27.07 31.893,27.07C31.515,27.07 31.142,26.995 30.793,26.851C30.444,26.706 30.127,26.495 29.861,26.228C29.017,25.384 28.808,24.142 29.235,23.102L25.358,19.226L25.358,29.427C25.64,29.566 25.897,29.75 26.12,29.971C26.387,30.238 26.598,30.554 26.743,30.903C26.887,31.252 26.962,31.625 26.962,32.003C26.962,32.38 26.887,32.754 26.743,33.102C26.598,33.451 26.387,33.768 26.12,34.035C25.853,34.302 25.536,34.513 25.188,34.658C24.839,34.802 24.465,34.877 24.088,34.877C23.711,34.877 23.337,34.802 22.988,34.658C22.639,34.513 22.323,34.302 22.056,34.035C21.789,33.768 21.577,33.451 21.432,33.103C21.287,32.754 21.213,32.38 21.213,32.003C21.213,31.625 21.287,31.252 21.432,30.903C21.577,30.554 21.789,30.237 22.056,29.971C22.334,29.694 22.642,29.484 22.997,29.344L22.997,19.048C22.655,18.907 22.334,18.7 22.056,18.421C21.652,18.018 21.378,17.504 21.268,16.944C21.158,16.385 21.217,15.805 21.437,15.279L17.183,11.027L5.957,22.242C5.732,22.466 5.554,22.733 5.433,23.026C5.311,23.319 5.249,23.633 5.249,23.95C5.249,24.267 5.311,24.582 5.433,24.875C5.554,25.168 5.732,25.434 5.957,25.658L22.33,42.029C22.554,42.254 22.82,42.431 23.113,42.553C23.406,42.674 23.72,42.737 24.037,42.737C24.355,42.737 24.669,42.674 24.962,42.553C25.255,42.431 25.521,42.254 25.745,42.029L42.042,25.758C42.267,25.534 42.445,25.267 42.566,24.974C42.688,24.681 42.75,24.367 42.75,24.05C42.75,23.733 42.688,23.418 42.566,23.125C42.445,22.832 42.267,22.566 42.042,22.342" style="fill:white;fill-rule:nonzero;"/>
                    </g>
                </g>
                <g>
                    <path d="M48,11.25L48,36.75C48,42.959 42.959,48 36.75,48L11.25,48C5.041,48 0,42.959 0,36.75L0,11.25C0,5.041 5.041,0 11.25,0L36.75,0C42.959,0 48,5.041 48,11.25Z" style="fill:rgb(240,60,46);"/>
                    <g>
                        <path d="M42.042,22.33L25.67,5.958C25.446,5.734 25.18,5.556 24.887,5.434C24.594,5.313 24.28,5.25 23.962,5.25C23.645,5.25 23.331,5.313 23.038,5.434C22.745,5.556 22.479,5.734 22.255,5.958L18.857,9.356L23.169,13.669C24.172,13.317 25.321,13.557 26.12,14.357C26.5,14.738 26.766,15.218 26.886,15.743C27.007,16.268 26.977,16.816 26.801,17.325L30.957,21.482C31.963,21.135 33.123,21.359 33.926,22.164C34.193,22.431 34.404,22.748 34.549,23.096C34.693,23.445 34.767,23.819 34.767,24.196C34.767,24.574 34.693,24.947 34.548,25.296C34.404,25.645 34.192,25.961 33.925,26.228C33.658,26.495 33.341,26.707 32.993,26.851C32.644,26.996 32.27,27.07 31.893,27.07C31.515,27.07 31.142,26.995 30.793,26.851C30.444,26.706 30.127,26.495 29.861,26.228C29.017,25.384 28.808,24.142 29.235,23.102L25.358,19.226L25.358,29.427C25.64,29.566 25.897,29.75 26.12,29.971C26.387,30.238 26.598,30.554 26.743,30.903C26.887,31.252 26.962,31.625 26.962,32.003C26.962,32.38 26.887,32.754 26.743,33.102C26.598,33.451 26.387,33.768 26.12,34.035C25.853,34.302 25.536,34.513 25.188,34.658C24.839,34.802 24.465,34.877 24.088,34.877C23.711,34.877 23.337,34.802 22.988,34.658C22.639,34.513 22.323,34.302 22.056,34.035C21.789,33.768 21.577,33.451 21.432,33.103C21.287,32.754 21.213,32.38 21.213,32.003C21.213,31.625 21.287,31.252 21.432,30.903C21.577,30.554 21.789,30.237 22.056,29.971C22.334,29.694 22.642,29.484 22.997,29.344L22.997,19.048C22.655,18.907 22.334,18.7 22.056,18.421C21.652,18.018 21.378,17.504 21.268,16.944C21.158,16.385 21.217,15.805 21.437,15.279L17.183,11.027L5.957,22.242C5.732,22.466 5.554,22.733 5.433,23.026C5.311,23.319 5.249,23.633 5.249,23.95C5.249,24.267 5.311,24.582 5.433,24.875C5.554,25.168 5.732,25.434 5.957,25.658L22.33,42.029C22.554,42.254 22.82,42.431 23.113,42.553C23.406,42.674 23.72,42.737 24.037,42.737C24.355,42.737 24.669,42.674 24.962,42.553C25.255,42.431 25.521,42.254 25.745,42.029L42.042,25.758C42.267,25.534 42.445,25.267 42.566,24.974C42.688,24.681 42.75,24.367 42.75,24.05C42.75,23.733 42.688,23.418 42.566,23.125C42.445,22.832 42.267,22.566 42.042,22.342" style="fill:white;fill-rule:nonzero;"/>
                    </g>
                </g>
            </g>
        </g>
    </g>
</svg>
