<?xml version="1.0" encoding="UTF-8" standalone="no"?>
<!DOCTYPE svg PUBLIC "-//W3C//DTD SVG 1.1//EN" "http://www.w3.org/Graphics/SVG/1.1/DTD/svg11.dtd">
<svg width="100%" height="100%" viewBox="0 0 48 48" version="1.1" xmlns="http://www.w3.org/2000/svg" xmlns:xlink="http://www.w3.org/1999/xlink" xml:space="preserve" xmlns:serif="http://www.serif.com/" style="fill-rule:evenodd;clip-rule:evenodd;stroke-linejoin:round;stroke-miterlimit:2;">
    <g transform="matrix(1,0,0,1,-496.476,-1041.68)">
        <g id="GitHub" transform="matrix(1,0,0,1,496.476,1041.68)">
            <path d="M48,11.25L48,36.75C48,42.959 42.959,48 36.75,48L11.25,48C5.041,48 0,42.959 0,36.75L0,11.25C0,5.041 5.041,0 11.25,0L36.75,0C42.959,0 48,5.041 48,11.25Z" style="fill:rgb(36,41,56);"/>
            <path d="M24,5.625C13.646,5.625 5.25,14.02 5.25,24.375C5.25,32.66 10.622,39.688 18.073,42.167C19.01,42.341 19.354,41.76 19.354,41.265C19.354,40.818 19.336,39.341 19.328,37.774C14.112,38.909 13.011,35.562 13.011,35.562C12.158,33.395 10.929,32.819 10.929,32.819C9.228,31.655 11.057,31.679 11.057,31.679C12.94,31.811 13.932,33.611 13.932,33.611C15.604,36.477 18.318,35.649 19.388,35.17C19.556,33.958 20.042,33.131 20.578,32.662C16.414,32.188 12.036,30.58 12.036,23.396C12.036,21.349 12.768,19.676 13.968,18.363C13.773,17.891 13.131,15.984 14.149,13.401C14.149,13.401 15.724,12.897 19.307,15.323C20.803,14.908 22.407,14.699 24,14.692C25.594,14.699 27.199,14.908 28.697,15.323C32.276,12.897 33.848,13.401 33.848,13.401C34.869,15.984 34.227,17.891 34.032,18.363C35.234,19.676 35.962,21.349 35.962,23.396C35.962,30.598 31.576,32.183 27.4,32.647C28.073,33.229 28.672,34.37 28.672,36.12C28.672,38.628 28.65,40.648 28.65,41.265C28.65,41.764 28.988,42.349 29.938,42.165C37.384,39.683 42.75,32.657 42.75,24.375C42.75,14.02 34.355,5.625 24,5.625ZM12.273,32.335C12.231,32.428 12.085,32.456 11.951,32.392C11.815,32.331 11.739,32.204 11.783,32.111C11.823,32.014 11.97,31.988 12.106,32.052C12.242,32.113 12.32,32.242 12.273,32.335ZM13.195,33.158C13.105,33.241 12.931,33.202 12.812,33.071C12.689,32.941 12.666,32.766 12.757,32.682C12.849,32.599 13.019,32.638 13.142,32.768C13.264,32.901 13.288,33.074 13.195,33.158ZM13.828,34.211C13.713,34.291 13.525,34.216 13.409,34.049C13.294,33.882 13.294,33.683 13.411,33.602C13.528,33.522 13.713,33.594 13.83,33.76C13.945,33.929 13.945,34.129 13.828,34.211ZM14.898,35.43C14.795,35.544 14.576,35.513 14.416,35.359C14.252,35.207 14.206,34.993 14.309,34.88C14.413,34.766 14.633,34.798 14.795,34.951C14.958,35.102 15.007,35.318 14.898,35.43ZM16.281,35.842C16.235,35.989 16.024,36.056 15.812,35.993C15.6,35.929 15.461,35.757 15.504,35.609C15.548,35.461 15.76,35.391 15.974,35.458C16.186,35.522 16.325,35.693 16.281,35.842ZM17.855,36.017C17.86,36.171 17.68,36.299 17.457,36.302C17.233,36.307 17.051,36.182 17.049,36.03C17.049,35.874 17.225,35.747 17.449,35.743C17.672,35.739 17.855,35.863 17.855,36.017ZM19.401,35.957C19.427,36.108 19.273,36.263 19.051,36.305C18.833,36.344 18.632,36.251 18.604,36.101C18.577,35.947 18.735,35.792 18.952,35.752C19.174,35.713 19.373,35.804 19.401,35.957Z" style="fill:white;fill-rule:nonzero;"/>
        </g>
    </g>
</svg>
