<?xml version="1.0" encoding="UTF-8" standalone="no"?>
<!DOCTYPE svg PUBLIC "-//W3C//DTD SVG 1.1//EN" "http://www.w3.org/Graphics/SVG/1.1/DTD/svg11.dtd">
<svg width="100%" height="100%" viewBox="0 0 52 52" version="1.1" xmlns="http://www.w3.org/2000/svg" xmlns:xlink="http://www.w3.org/1999/xlink" xml:space="preserve" xmlns:serif="http://www.serif.com/" style="fill-rule:evenodd;clip-rule:evenodd;stroke-linejoin:round;stroke-miterlimit:2;">
    <g transform="matrix(1,0,0,1,-258.905,-957.62)">
        <g>
            <g transform="matrix(1,0,0,1,260.361,959.076)">
                <g>
                    <path d="M48,11.25L48,36.75C48,42.959 42.959,48 36.75,48L11.25,48C5.041,48 0,42.959 0,36.75L0,11.25C0,5.041 5.041,0 11.25,0L36.75,0C42.959,0 48,5.041 48,11.25Z" style="fill:rgb(225,78,29);"/>
                    <path d="M9,7.125L10.614,25.236L31.372,25.236L30.676,33.004L23.992,34.811L17.321,33.007L16.875,28.019L10.864,28.019L11.723,37.634L23.991,41.042L36.274,37.634L37.921,19.248L16.092,19.248L15.544,13.115L38.464,13.115L39,7.125L9,7.125Z" style="fill:white;"/>
                    <path d="M24,7.125L9,7.125L10.614,25.236L24,25.236L24,19.248L16.092,19.248L15.544,13.115L24,13.115L24,7.125Z" style="fill:rgb(235,235,235);"/>
                    <path d="M24,34.809L23.992,34.811L17.321,33.007L16.875,28.019L10.864,28.019L11.723,37.634L23.991,41.042L24,41.039L24,34.809Z" style="fill:rgb(235,235,235);"/>
                </g>
                <g>
                    <path d="M48,11.25L48,36.75C48,42.959 42.959,48 36.75,48L11.25,48C5.041,48 0,42.959 0,36.75L0,11.25C0,5.041 5.041,0 11.25,0L36.75,0C42.959,0 48,5.041 48,11.25Z" style="fill:rgb(225,78,29);"/>
                    <path d="M9,7.125L10.614,25.236L31.372,25.236L30.676,33.004L23.992,34.811L17.321,33.007L16.875,28.019L10.864,28.019L11.723,37.634L23.991,41.042L36.274,37.634L37.921,19.248L16.092,19.248L15.544,13.115L38.464,13.115L39,7.125L9,7.125Z" style="fill:white;"/>
                    <path d="M24,7.125L9,7.125L10.614,25.236L24,25.236L24,19.248L16.092,19.248L15.544,13.115L24,13.115L24,7.125Z" style="fill:rgb(235,235,235);"/>
                    <path d="M24,34.809L23.992,34.811L17.321,33.007L16.875,28.019L10.864,28.019L11.723,37.634L23.991,41.042L24,41.039L24,34.809Z" style="fill:rgb(235,235,235);"/>
                </g>
            </g>
        </g>
    </g>
</svg>
