<?xml version="1.0" encoding="UTF-8" standalone="no"?>
<!DOCTYPE svg PUBLIC "-//W3C//DTD SVG 1.1//EN" "http://www.w3.org/Graphics/SVG/1.1/DTD/svg11.dtd">
<svg width="100%" height="100%" viewBox="0 0 52 52" version="1.1" xmlns="http://www.w3.org/2000/svg" xmlns:xlink="http://www.w3.org/1999/xlink" xml:space="preserve" xmlns:serif="http://www.serif.com/" style="fill-rule:evenodd;clip-rule:evenodd;stroke-linejoin:round;stroke-miterlimit:2;">
    <g transform="matrix(1,0,0,1,-375.925,-1040.28)">
        <g>
            <g id="iTerm" transform="matrix(0.0582524,0,0,0.0582524,371.621,1035.85)">
                <g>
                    <path d="M924,279L924,745C924,843.793 843.793,924 745,924L279,924C180.207,924 100,843.793 100,745L100,279C100,180.207 180.207,100 279,100L745,100C843.793,100 924,180.207 924,279Z" style="fill:url(#_Linear1);"/>
                    <path d="M902.211,277.789L902.211,746.212C902.211,832.311 832.31,902.212 746.211,902.212L277.788,902.212C191.689,902.212 121.788,832.311 121.788,746.212L121.788,277.789C121.788,191.69 191.689,121.789 277.788,121.789L746.211,121.789C832.31,121.789 902.211,191.69 902.211,277.789Z"/>
                    <path d="M840.807,277.192L840.807,746.807C840.807,798.687 798.687,840.807 746.807,840.807L277.192,840.807C225.312,840.807 183.192,798.687 183.192,746.807L183.192,277.192C183.192,225.312 225.312,183.192 277.192,183.192L746.807,183.192C798.687,183.192 840.807,225.312 840.807,277.192Z" style="fill:rgb(32,42,47);"/>
                    <rect x="367.404" y="226.769" width="89.135" height="178.269" style="fill:rgb(14,232,39);fill-opacity:0.35;"/>
                    <path d="M274.468,374.622C269.807,374.227 265.438,373.568 261.36,372.645C257.427,371.59 253.786,370.47 250.436,369.284C247.232,368.097 244.392,366.977 241.916,365.922C239.586,364.736 237.838,363.813 236.673,363.154L246.067,345.754C247.086,346.413 248.834,347.335 251.31,348.522C253.786,349.708 256.553,350.96 259.612,352.279C262.816,353.465 266.093,354.52 269.443,355.442C272.793,356.365 275.924,356.827 278.837,356.827C293.402,356.827 300.684,351.356 300.684,340.415C300.684,337.778 300.174,335.603 299.154,333.89C298.281,332.176 296.897,330.726 295.004,329.54C293.256,328.221 291.071,327.101 288.45,326.178C285.974,325.124 283.134,324.069 279.929,323.015C273.812,320.905 268.351,318.73 263.544,316.489C258.884,314.117 254.878,311.48 251.529,308.58C248.179,305.68 245.63,302.385 243.882,298.694C242.135,295.003 241.261,290.784 241.261,286.039C241.261,282.348 242.062,278.789 243.664,275.361C245.266,271.934 247.523,268.902 250.436,266.266C253.349,263.498 256.845,261.191 260.923,259.345C265.001,257.368 269.516,255.984 274.468,255.193L274.468,226.769L292.382,226.769L292.382,254.797C296.169,255.193 299.81,255.786 303.305,256.577C306.801,257.368 309.932,258.225 312.699,259.147C315.467,260.07 317.797,260.993 319.69,261.916C321.729,262.707 323.186,263.3 324.06,263.695L315.321,279.909C314.156,279.382 312.481,278.723 310.296,277.932C308.257,277.009 305.927,276.086 303.305,275.164C300.684,274.241 297.844,273.45 294.785,272.791C291.727,272.132 288.668,271.802 285.61,271.802C280.658,271.802 276.215,272.725 272.283,274.57C268.496,276.284 266.603,279.25 266.603,283.468C266.603,286.105 267.113,288.478 268.132,290.587C269.297,292.564 270.899,294.344 272.938,295.925C275.123,297.507 277.745,299.023 280.803,300.473C284.007,301.791 287.649,303.11 291.727,304.428C297.115,306.405 301.922,308.448 306.145,310.558C310.369,312.667 313.937,315.039 316.85,317.676C319.763,320.312 321.948,323.344 323.404,326.771C325.006,330.199 325.807,334.219 325.807,338.833C325.807,342.788 325.079,346.61 323.623,350.301C322.312,353.992 320.2,357.42 317.287,360.583C314.52,363.747 311.025,366.515 306.801,368.888C302.723,371.129 297.916,372.777 292.382,373.831L292.382,403.058L274.468,403.058L274.468,374.622Z" style="fill:rgb(14,232,39);fill-rule:nonzero;"/>
                </g>
                <g>
                    <path d="M924,279L924,745C924,843.793 843.793,924 745,924L279,924C180.207,924 100,843.793 100,745L100,279C100,180.207 180.207,100 279,100L745,100C843.793,100 924,180.207 924,279Z" style="fill:url(#_Linear2);"/>
                    <path d="M902.211,277.789L902.211,746.212C902.211,832.311 832.31,902.212 746.211,902.212L277.788,902.212C191.689,902.212 121.788,832.311 121.788,746.212L121.788,277.789C121.788,191.69 191.689,121.789 277.788,121.789L746.211,121.789C832.31,121.789 902.211,191.69 902.211,277.789Z"/>
                    <path d="M840.807,277.192L840.807,746.807C840.807,798.687 798.687,840.807 746.807,840.807L277.192,840.807C225.312,840.807 183.192,798.687 183.192,746.807L183.192,277.192C183.192,225.312 225.312,183.192 277.192,183.192L746.807,183.192C798.687,183.192 840.807,225.312 840.807,277.192Z" style="fill:rgb(32,42,47);"/>
                    <rect x="367.404" y="226.769" width="89.135" height="178.269" style="fill:rgb(14,232,39);fill-opacity:0.35;"/>
                    <path d="M274.468,374.622C269.807,374.227 265.438,373.568 261.36,372.645C257.427,371.59 253.786,370.47 250.436,369.284C247.232,368.097 244.392,366.977 241.916,365.922C239.586,364.736 237.838,363.813 236.673,363.154L246.067,345.754C247.086,346.413 248.834,347.335 251.31,348.522C253.786,349.708 256.553,350.96 259.612,352.279C262.816,353.465 266.093,354.52 269.443,355.442C272.793,356.365 275.924,356.827 278.837,356.827C293.402,356.827 300.684,351.356 300.684,340.415C300.684,337.778 300.174,335.603 299.154,333.89C298.281,332.176 296.897,330.726 295.004,329.54C293.256,328.221 291.071,327.101 288.45,326.178C285.974,325.124 283.134,324.069 279.929,323.015C273.812,320.905 268.351,318.73 263.544,316.489C258.884,314.117 254.878,311.48 251.529,308.58C248.179,305.68 245.63,302.385 243.882,298.694C242.135,295.003 241.261,290.784 241.261,286.039C241.261,282.348 242.062,278.789 243.664,275.361C245.266,271.934 247.523,268.902 250.436,266.266C253.349,263.498 256.845,261.191 260.923,259.345C265.001,257.368 269.516,255.984 274.468,255.193L274.468,226.769L292.382,226.769L292.382,254.797C296.169,255.193 299.81,255.786 303.305,256.577C306.801,257.368 309.932,258.225 312.699,259.147C315.467,260.07 317.797,260.993 319.69,261.916C321.729,262.707 323.186,263.3 324.06,263.695L315.321,279.909C314.156,279.382 312.481,278.723 310.296,277.932C308.257,277.009 305.927,276.086 303.305,275.164C300.684,274.241 297.844,273.45 294.785,272.791C291.727,272.132 288.668,271.802 285.61,271.802C280.658,271.802 276.215,272.725 272.283,274.57C268.496,276.284 266.603,279.25 266.603,283.468C266.603,286.105 267.113,288.478 268.132,290.587C269.297,292.564 270.899,294.344 272.938,295.925C275.123,297.507 277.745,299.023 280.803,300.473C284.007,301.791 287.649,303.11 291.727,304.428C297.115,306.405 301.922,308.448 306.145,310.558C310.369,312.667 313.937,315.039 316.85,317.676C319.763,320.312 321.948,323.344 323.404,326.771C325.006,330.199 325.807,334.219 325.807,338.833C325.807,342.788 325.079,346.61 323.623,350.301C322.312,353.992 320.2,357.42 317.287,360.583C314.52,363.747 311.025,366.515 306.801,368.888C302.723,371.129 297.916,372.777 292.382,373.831L292.382,403.058L274.468,403.058L274.468,374.622Z" style="fill:rgb(14,232,39);fill-rule:nonzero;"/>
                </g>
            </g>
        </g>
    </g>
    <defs>
        <linearGradient id="_Linear1" x1="0" y1="0" x2="1" y2="0" gradientUnits="userSpaceOnUse" gradientTransform="matrix(5.04554e-14,824,-824,5.04554e-14,512,100)"><stop offset="0" style="stop-color:rgb(212,230,232);stop-opacity:1"/><stop offset="1" style="stop-color:rgb(118,117,115);stop-opacity:1"/></linearGradient>
        <linearGradient id="_Linear2" x1="0" y1="0" x2="1" y2="0" gradientUnits="userSpaceOnUse" gradientTransform="matrix(5.04554e-14,824,-824,5.04554e-14,512,100)"><stop offset="0" style="stop-color:rgb(212,230,232);stop-opacity:1"/><stop offset="1" style="stop-color:rgb(118,117,115);stop-opacity:1"/></linearGradient>
    </defs>
</svg>
