<?xml version="1.0" encoding="UTF-8" standalone="no"?>
<!DOCTYPE svg PUBLIC "-//W3C//DTD SVG 1.1//EN" "http://www.w3.org/Graphics/SVG/1.1/DTD/svg11.dtd">
<svg width="100%" height="100%" viewBox="0 0 48 48" version="1.1" xmlns="http://www.w3.org/2000/svg" xmlns:xlink="http://www.w3.org/1999/xlink" xml:space="preserve" xmlns:serif="http://www.serif.com/" style="fill-rule:evenodd;clip-rule:evenodd;stroke-linejoin:round;stroke-miterlimit:2;">
    <g transform="matrix(1,0,0,1,-430.586,-1058.52)">
        <g id="jQuery" transform="matrix(1,0,0,1,430.586,1058.52)">
            <path d="M48,11.25L48,36.75C48,42.959 42.959,48 36.75,48L11.25,48C5.041,48 0,42.959 0,36.75L0,11.25C0,5.041 5.041,0 11.25,0L36.75,0C42.959,0 48,5.041 48,11.25Z" style="fill:rgb(202,202,202);"/>
            <path d="M14.857,12.889C12.985,15.63 13.218,19.195 14.645,22.104L14.749,22.311L14.82,22.442C14.833,22.468 14.849,22.493 14.862,22.517C14.887,22.564 14.912,22.608 14.933,22.653L15.069,22.892L15.147,23.023L15.306,23.275L15.377,23.382C15.448,23.495 15.528,23.608 15.606,23.719C15.608,23.722 15.611,23.725 15.613,23.728C15.625,23.746 15.639,23.763 15.648,23.781C15.716,23.877 15.79,23.971 15.861,24.065L15.94,24.167L16.133,24.408L16.206,24.498C16.294,24.604 16.384,24.709 16.476,24.812L16.481,24.817C16.485,24.822 16.489,24.824 16.492,24.829C16.581,24.929 16.672,25.027 16.766,25.123L16.854,25.213L17.072,25.432L17.162,25.518C17.26,25.612 17.36,25.705 17.461,25.795L17.518,25.845L17.79,26.079L17.902,26.17L18.129,26.348L18.25,26.442L18.597,26.695C18.606,26.701 18.614,26.707 18.622,26.713C18.704,26.77 18.787,26.825 18.869,26.88L18.977,26.953L19.364,27.194L19.471,27.255L19.761,27.421C19.814,27.45 19.869,27.478 19.922,27.505L20.129,27.611L20.177,27.635L20.262,27.677L20.592,27.832L20.662,27.867C20.789,27.924 20.917,27.978 21.046,28.03L21.139,28.068L21.502,28.204L21.547,28.221C21.681,28.268 21.816,28.313 21.951,28.355L22.049,28.385C22.191,28.428 22.324,28.478 22.466,28.506C31.52,30.191 34.151,22.968 34.151,22.968C31.942,25.899 28.021,26.671 24.307,25.811C24.166,25.776 24.029,25.734 23.892,25.693L23.788,25.657C23.654,25.616 23.521,25.571 23.389,25.525L23.334,25.505C23.216,25.462 23.099,25.418 22.982,25.372L22.883,25.332C22.756,25.281 22.629,25.227 22.503,25.171L22.427,25.137L22.107,24.985L22.015,24.94C21.932,24.898 21.849,24.855 21.767,24.811L21.601,24.722C21.501,24.668 21.402,24.611 21.304,24.553L21.204,24.496C21.074,24.418 20.944,24.336 20.817,24.255C20.782,24.232 20.747,24.207 20.712,24.184L20.437,23.998L20.348,23.934L20.088,23.742L19.972,23.654L19.737,23.467L19.633,23.382L19.34,23.134C19.33,23.125 19.319,23.116 19.305,23.106C19.201,23.013 19.098,22.917 18.997,22.821L18.911,22.736L18.689,22.516L18.603,22.427C18.511,22.331 18.42,22.234 18.332,22.135C18.328,22.13 18.323,22.126 18.318,22.121C18.225,22.016 18.133,21.91 18.043,21.802L17.971,21.715L17.773,21.466L17.7,21.374L17.472,21.063C15.409,18.198 14.672,14.246 16.316,11.001L14.857,12.889ZM20.669,10.58C19.316,12.564 19.389,15.22 20.445,17.319C20.622,17.671 20.822,18.012 21.044,18.337C21.247,18.633 21.472,18.986 21.741,19.223C21.839,19.33 21.941,19.436 22.045,19.544C22.071,19.572 22.098,19.598 22.125,19.625C22.226,19.725 22.33,19.823 22.436,19.919C22.44,19.922 22.444,19.926 22.448,19.93C22.568,20.036 22.689,20.139 22.814,20.238L22.896,20.303C23.02,20.401 23.146,20.495 23.275,20.586C23.279,20.588 23.282,20.591 23.286,20.594C23.342,20.634 23.401,20.672 23.459,20.71C23.486,20.729 23.513,20.748 23.54,20.765C23.633,20.826 23.726,20.884 23.821,20.941L23.861,20.964L24.109,21.106C24.138,21.123 24.168,21.137 24.198,21.153L24.375,21.244C24.384,21.249 24.393,21.252 24.401,21.257C24.521,21.317 24.641,21.374 24.764,21.428C24.79,21.44 24.817,21.451 24.844,21.462C24.942,21.505 25.041,21.546 25.142,21.585L25.269,21.633C25.36,21.666 25.45,21.698 25.542,21.729L25.665,21.769C25.795,21.811 25.924,21.862 26.06,21.886C33.05,23.065 34.665,17.583 34.665,17.583C33.21,19.717 30.393,20.735 27.386,19.941C27.253,19.905 27.121,19.866 26.99,19.824C26.95,19.811 26.911,19.798 26.871,19.788C26.778,19.758 26.686,19.725 26.594,19.691L26.469,19.644C26.369,19.608 26.27,19.564 26.171,19.521C26.144,19.51 26.117,19.499 26.091,19.487C25.968,19.433 25.846,19.375 25.726,19.314C25.664,19.283 25.604,19.251 25.543,19.219L25.437,19.164C25.359,19.121 25.282,19.077 25.206,19.031L25.151,18.995C25.056,18.939 24.963,18.881 24.871,18.821C24.842,18.803 24.815,18.786 24.786,18.764L24.605,18.641C24.477,18.551 24.351,18.457 24.227,18.36L24.142,18.292C22.826,17.234 21.783,15.788 21.287,14.148C20.767,12.447 20.879,10.538 21.783,8.989L20.669,10.58ZM25.557,8.854C24.759,10.051 24.68,11.536 25.238,12.858C25.822,14.26 27.019,15.361 28.415,15.882C28.473,15.904 28.531,15.923 28.593,15.943L28.669,15.968C28.751,15.994 28.833,16.025 28.918,16.041C32.778,16.801 33.825,14.024 34.104,13.615C33.187,14.96 31.645,15.283 29.754,14.815C29.605,14.778 29.441,14.723 29.293,14.672C29.108,14.605 28.927,14.528 28.75,14.442C28.414,14.277 28.094,14.078 27.797,13.849C26.102,12.542 25.05,10.047 26.154,8.016" style="fill:white;fill-rule:nonzero;"/>
            <path d="M17.032,34.253L16.77,35.18L17.032,34.253L17.032,34.253ZM18.377,36.265L18.089,36.263L18.377,36.265ZM18.306,37.649L16.58,37.656L18.306,37.649ZM18.668,36.267L18.379,36.266L18.668,36.267ZM18.462,37.532L18.763,36.385L18.462,37.532ZM24.816,32.249L24.256,34.883L24.816,32.249ZM23.375,32.249L22.95,34.217L23.375,32.249Z" style="fill:white;fill-rule:nonzero;"/>
            <path d="M24.717,32.13L23.519,32.13C23.452,32.13 23.386,32.183 23.372,32.248L22.522,36.185C22.508,36.25 22.442,36.303 22.375,36.303L21.527,36.303C20.688,36.303 20.785,35.723 20.96,34.928L20.966,34.903L21.067,34.361L21.111,34.138L21.498,32.248C21.511,32.183 21.468,32.129 21.401,32.129L20.172,32.129C20.138,32.131 20.105,32.143 20.079,32.164C20.052,32.186 20.034,32.215 20.026,32.248L19.472,34.875C19.167,36.266 19.248,37.592 20.903,37.634L20.951,37.635L23.55,37.635C23.616,37.635 23.682,37.582 23.696,37.517L24.817,32.248C24.831,32.183 24.787,32.129 24.721,32.129L24.717,32.13ZM29.497,36.317C29.563,36.317 29.603,36.37 29.594,36.435L29.477,37.004L29.497,36.317ZM29.361,37.573L29.477,37.004L29.361,37.573ZM29.215,37.693L27.007,37.703L29.215,37.693Z" style="fill:white;fill-rule:nonzero;"/>
            <path d="M26.292,35.584C26.291,35.522 26.362,35.415 26.428,35.415L26.279,35.412C26.208,36.091 26.292,35.584 26.292,35.584ZM27.116,37.703L27.093,37.703L27.116,37.703ZM29.497,36.317C29.563,36.317 29.603,36.37 29.594,36.435L29.458,37.096L29.497,36.317ZM27.683,37.705L27.678,37.705L27.683,37.705ZM27.389,37.703L27.372,37.703L27.389,37.703ZM27.299,37.703L27.271,37.703L27.299,37.703ZM27.212,37.703L27.187,37.703L27.212,37.703ZM27.376,37.703L27.303,37.703L27.376,37.703Z" style="fill:white;fill-rule:nonzero;"/>
            <path d="M27.679,37.705L27.389,37.706L27.679,37.705ZM29.216,37.696L27.683,37.705L29.216,37.696ZM29.357,37.573L29.455,37.097L29.357,37.573L29.357,37.573ZM27.275,37.703L27.212,37.703L27.275,37.703ZM27.092,37.703L27.008,37.703L27.092,37.703ZM27.184,37.703L27.113,37.703L27.184,37.703ZM9.654,35.598L9.841,34.773L9.628,35.716L9.603,35.834L9.655,35.598L9.654,35.598ZM11.882,32.116L10.566,32.116C10.532,32.118 10.5,32.13 10.473,32.151C10.446,32.172 10.427,32.201 10.419,32.234L10.169,33.333C10.165,33.347 10.164,33.362 10.167,33.377C10.17,33.391 10.176,33.405 10.185,33.417C10.195,33.428 10.207,33.437 10.22,33.443C10.234,33.449 10.249,33.452 10.263,33.451L11.59,33.451C11.656,33.451 11.722,33.398 11.736,33.333L11.977,32.232C11.991,32.167 11.949,32.114 11.882,32.114L11.882,32.116ZM11.596,33.948L11.206,35.734L11.596,33.948ZM7.773,39.865L8.858,39.873C8.538,39.873 8.009,39.867 7.773,39.865L7.773,39.865Z" style="fill:white;fill-rule:nonzero;"/>
            <path d="M10.023,33.948L9.837,34.773L10.023,33.948ZM11.501,33.83L10.174,33.83C10.14,33.831 10.108,33.843 10.081,33.865C10.054,33.886 10.035,33.915 10.027,33.948L9.654,35.598L9.603,35.835L9.248,37.519C9.231,37.598 9.209,37.676 9.184,37.752C9.184,37.752 8.936,38.489 8.52,38.481L8.107,38.474C8.074,38.474 8.041,38.486 8.014,38.507C7.987,38.528 7.968,38.556 7.959,38.589L7.684,39.745C7.68,39.76 7.679,39.775 7.681,39.789C7.684,39.804 7.69,39.817 7.699,39.829C7.708,39.841 7.72,39.85 7.733,39.856C7.747,39.862 7.762,39.865 7.776,39.865L8.862,39.873C9.903,39.873 10.451,39.297 10.803,37.638L11.6,33.952C11.614,33.887 11.571,33.834 11.504,33.834L11.501,33.83ZM30.342,37.636C30.275,37.636 30.236,37.582 30.246,37.517L31.244,32.844L30.342,37.636ZM31.729,37.517L32.133,35.522L31.729,37.517Z" style="fill:white;fill-rule:nonzero;"/>
            <path d="M30.261,37.576C30.253,37.544 30.257,37.464 30.272,37.399L30.745,35.181L30.246,37.517C30.232,37.582 30.275,37.636 30.342,37.636L30.463,37.636C30.396,37.636 30.269,37.609 30.261,37.576ZM31.65,37.609C31.614,37.623 31.53,37.636 31.463,37.636L31.584,37.636C31.618,37.634 31.651,37.622 31.677,37.6C31.703,37.579 31.721,37.55 31.729,37.517L31.754,37.399C31.741,37.464 31.683,37.594 31.647,37.609L31.65,37.609ZM31.93,36.52L32.108,35.639L31.93,36.52ZM35.867,33.157L35.922,33.384C35.937,33.449 35.895,33.501 35.829,33.502" style="fill:white;fill-rule:nonzero;"/>
            <path d="M31.753,37.399L31.93,36.52L31.753,37.399ZM35.813,32.92L35.867,33.153L35.813,32.92ZM32.108,35.639L32.157,35.404L32.348,34.513L32.132,35.522L32.108,35.639L32.108,35.639ZM31.26,32.767L31.219,32.962L30.745,35.181L31.244,32.844L31.26,32.767L31.26,32.767Z" style="fill:white;fill-rule:nonzero;"/>
            <path d="M35.922,33.384L35.867,33.157L35.786,32.803C35.678,32.384 35.362,32.142 34.675,32.142L31.514,32.14C31.48,32.141 31.447,32.153 31.421,32.175C31.395,32.196 31.376,32.226 31.368,32.258L31.319,32.49L31.248,32.84L30.275,37.395C30.261,37.46 30.257,37.537 30.265,37.572C30.273,37.608 30.401,37.631 30.467,37.631L31.466,37.631C31.533,37.631 31.617,37.619 31.653,37.605C31.69,37.59 31.743,37.463 31.76,37.394L32.139,35.518L32.545,33.617C32.559,33.552 32.624,33.499 32.691,33.499L35.835,33.497C35.902,33.497 35.944,33.444 35.929,33.38L35.922,33.384ZM39.971,31.331L39.729,31.332L38.722,31.332C38.685,31.334 38.649,31.344 38.617,31.361C38.584,31.379 38.555,31.402 38.533,31.432L36.307,34.692C36.27,34.747 36.227,34.739 36.212,34.675L36.048,33.956C36.039,33.923 36.02,33.894 35.993,33.873C35.967,33.852 35.934,33.839 35.9,33.838L34.469,33.838C34.402,33.838 34.363,33.89 34.381,33.954L35.019,36.201C35.038,36.264 35.039,36.37 35.023,36.434L34.739,37.522C34.734,37.535 34.733,37.55 34.736,37.565C34.738,37.58 34.744,37.593 34.753,37.605C34.762,37.616 34.774,37.626 34.787,37.632C34.801,37.638 34.816,37.64 34.83,37.639L36.248,37.639C36.315,37.639 36.383,37.586 36.399,37.522L36.683,36.435C36.705,36.358 36.74,36.286 36.785,36.221L40.402,31.425C40.442,31.371 40.421,31.328 40.354,31.329L39.975,31.331L39.971,31.331ZM28.603,34.144C28.594,34.214 28.528,34.268 28.461,34.268L26.646,34.268C26.584,34.268 26.552,34.225 26.561,34.172L26.563,34.162L26.571,34.132C26.748,33.671 27.097,33.368 27.76,33.368C28.507,33.368 28.653,33.734 28.602,34.144L28.603,34.144ZM28.07,32.05C25.742,32.05 25.19,33.463 24.881,34.89C24.571,36.344 24.598,37.704 27.007,37.704L27.389,37.704L27.683,37.703L29.216,37.693C29.25,37.692 29.282,37.679 29.308,37.658C29.334,37.637 29.353,37.607 29.361,37.575L29.594,36.436C29.607,36.371 29.563,36.318 29.497,36.318L27.331,36.318C26.469,36.318 26.213,36.089 26.307,35.416L29.77,35.416C29.827,35.415 29.878,35.381 29.898,35.327C29.902,35.317 29.906,35.307 29.907,35.296C30.421,33.358 30.273,32.051 28.071,32.051L28.07,32.05ZM17.064,34.136L17.032,34.252C17.032,34.252 16.77,35.179 16.77,35.179L16.509,36.105C16.498,36.138 16.477,36.167 16.45,36.187C16.422,36.208 16.389,36.22 16.355,36.221L14.971,36.221C13.921,36.221 13.665,35.4 13.921,34.189C14.176,32.951 14.677,32.18 15.711,32.103C17.123,31.996 17.405,32.989 17.064,34.136L17.064,34.136ZM18.014,36.151C18.014,36.151 18.666,34.566 18.815,33.651C19.016,32.426 18.403,30.649 16.034,30.649C13.678,30.649 12.656,32.345 12.265,34.193C11.876,36.05 12.387,37.679 14.729,37.667L18.303,37.653C18.337,37.652 18.37,37.64 18.397,37.619C18.424,37.597 18.444,37.568 18.454,37.536L18.756,36.388C18.761,36.374 18.762,36.359 18.76,36.345C18.757,36.33 18.751,36.317 18.742,36.305C18.733,36.293 18.722,36.284 18.708,36.278C18.695,36.272 18.68,36.269 18.665,36.27L18.089,36.267C18.032,36.266 18,36.23 18.006,36.182C18.008,36.173 18.01,36.164 18.014,36.155L18.014,36.151Z" style="fill:white;fill-rule:nonzero;"/>
            <path d="M29.675,35.091C29.675,35.134 29.64,35.17 29.596,35.17C29.552,35.17 29.516,35.134 29.516,35.091C29.516,35.047 29.552,35.011 29.596,35.011C29.64,35.011 29.675,35.047 29.675,35.091Z" style="fill:white;fill-rule:nonzero;"/>
        </g>
    </g>
</svg>
