<?xml version="1.0" encoding="UTF-8" standalone="no"?>
<!DOCTYPE svg PUBLIC "-//W3C//DTD SVG 1.1//EN" "http://www.w3.org/Graphics/SVG/1.1/DTD/svg11.dtd">
<svg width="100%" height="100%" viewBox="0 0 49 49" version="1.1" xmlns="http://www.w3.org/2000/svg" xmlns:xlink="http://www.w3.org/1999/xlink" xml:space="preserve" xmlns:serif="http://www.serif.com/" style="fill-rule:evenodd;clip-rule:evenodd;stroke-linejoin:round;stroke-miterlimit:2;">
    <g transform="matrix(1,0,0,1,-260.257,-1041.58)">
        <g id="Notion" transform="matrix(1,0,0,1,260.361,1041.68)">
            <g>
                <path d="M36.75,0L11.25,0C5.037,0 0,5.037 0,11.25L0,36.75C0,42.963 5.037,48 11.25,48L36.75,48C42.963,48 48,42.963 48,36.75L48,11.25C48,5.037 42.963,0 36.75,0Z" style="fill:white;fill-rule:nonzero;stroke:rgb(207,207,207);stroke-width:0.21px;"/>
                <g transform="matrix(1.05033,0,0,1.05033,-0.370888,-1.20325)">
                    <path d="M9.474,8.915L27.63,7.574C29.861,7.383 30.434,7.512 31.836,8.531L37.632,12.614C38.588,13.316 38.906,13.508 38.906,14.272L38.906,36.665C38.906,38.068 38.396,38.898 36.612,39.025L15.528,40.302C14.189,40.365 13.552,40.174 12.851,39.28L8.583,33.73C7.817,32.709 7.5,31.944 7.5,31.051L7.5,11.147C7.5,9.999 8.01,9.042 9.474,8.915Z" style="fill:white;fill-rule:nonzero;"/>
                    <path d="M27.63,7.575L9.474,8.916C8.01,9.042 7.5,9.999 7.5,11.147L7.5,31.051C7.5,31.944 7.817,32.709 8.583,33.73L12.851,39.28C13.552,40.173 14.189,40.365 15.528,40.301L36.613,39.025C38.395,38.898 38.906,38.068 38.906,36.665L38.906,14.273C38.906,13.547 38.62,13.338 37.776,12.72L31.836,8.531C30.434,7.512 29.861,7.383 27.63,7.574L27.63,7.575ZM16.005,13.906C14.283,14.022 13.893,14.048 12.915,13.253L10.429,11.276C10.177,11.02 10.304,10.701 10.94,10.637L28.394,9.362C29.86,9.234 30.623,9.744 31.196,10.191L34.19,12.36C34.318,12.424 34.636,12.806 34.253,12.806L16.228,13.891L16.005,13.906ZM13.998,36.473L13.998,17.464C13.998,16.634 14.253,16.251 15.016,16.187L35.719,14.975C36.421,14.911 36.738,15.358 36.738,16.187L36.738,35.069C36.738,35.899 36.61,36.602 35.464,36.665L15.653,37.813C14.507,37.877 13.998,37.495 13.998,36.473L13.998,36.473ZM33.554,18.483C33.681,19.058 33.554,19.632 32.98,19.697L32.025,19.887L32.025,33.922C31.196,34.368 30.433,34.623 29.795,34.623C28.775,34.623 28.521,34.304 27.757,33.347L21.513,23.523L21.513,33.028L23.488,33.475C23.488,33.475 23.488,34.624 21.895,34.624L17.501,34.879C17.373,34.623 17.501,33.985 17.946,33.858L19.094,33.54L19.094,20.973L17.501,20.844C17.373,20.27 17.692,19.441 18.584,19.376L23.298,19.059L29.795,29.01L29.795,20.206L28.139,20.016C28.011,19.313 28.521,18.802 29.157,18.74L33.554,18.483Z"/>
                </g>
            </g>
        </g>
    </g>
</svg>
