<?xml version="1.0" encoding="UTF-8" standalone="no"?>
<!DOCTYPE svg PUBLIC "-//W3C//DTD SVG 1.1//EN" "http://www.w3.org/Graphics/SVG/1.1/DTD/svg11.dtd">
<svg width="100%" height="100%" viewBox="0 0 52 52" version="1.1" xmlns="http://www.w3.org/2000/svg" xmlns:xlink="http://www.w3.org/1999/xlink" xml:space="preserve" xmlns:serif="http://www.serif.com/" style="fill-rule:evenodd;clip-rule:evenodd;stroke-linejoin:round;stroke-miterlimit:2;">
    <g transform="matrix(1,0,0,1,-383.352,-957.62)">
        <g>
            <g id="Sass" transform="matrix(1,0,0,1,384.808,959.076)">
                <g>
                    <path d="M48,11.25L48,36.75C48,42.959 42.959,48 36.75,48L11.25,48C5.041,48 0,42.959 0,36.75L0,11.25C0,5.041 5.041,0 11.25,0L36.75,0C42.959,0 48,5.041 48,11.25Z" style="fill:rgb(205,103,153);"/>
                    <g>
                        <path d="M37.52,26.093C36.212,26.1 35.076,26.415 34.125,26.88C33.776,26.189 33.426,25.573 33.365,25.121C33.296,24.594 33.214,24.272 33.296,23.642C33.378,23.012 33.748,22.116 33.741,22.047C33.734,21.979 33.659,21.657 32.906,21.65C32.153,21.644 31.503,21.794 31.427,21.993C31.352,22.191 31.208,22.643 31.113,23.108C30.983,23.793 29.606,26.237 28.819,27.517C28.566,27.017 28.347,26.579 28.299,26.23C28.231,25.703 28.148,25.381 28.231,24.751C28.313,24.121 28.682,23.225 28.676,23.156C28.669,23.088 28.593,22.766 27.84,22.759C27.087,22.752 26.437,22.903 26.362,23.102C26.286,23.3 26.204,23.766 26.047,24.217C25.889,24.669 24.062,28.749 23.582,29.803C23.336,30.344 23.124,30.775 22.973,31.07C22.973,31.07 22.966,31.09 22.946,31.124C22.816,31.378 22.74,31.515 22.74,31.515L22.74,31.522C22.638,31.706 22.528,31.877 22.473,31.877C22.432,31.877 22.357,31.385 22.487,30.714C22.761,29.297 23.411,27.092 23.405,27.017C23.405,26.976 23.528,26.593 22.98,26.394C22.446,26.196 22.254,26.524 22.206,26.524C22.159,26.524 22.124,26.641 22.124,26.641C22.124,26.641 22.72,24.163 20.988,24.163C19.906,24.163 18.414,25.347 17.675,26.415C17.209,26.668 16.217,27.209 15.156,27.791C14.752,28.017 14.334,28.243 13.944,28.455C13.916,28.427 13.889,28.393 13.862,28.366C11.767,26.127 7.892,24.546 8.057,21.541C8.118,20.445 8.495,17.57 15.498,14.079C21.262,11.238 25.848,12.025 26.642,13.771C27.779,16.263 24.185,20.89 18.229,21.561C15.956,21.815 14.765,20.938 14.464,20.61C14.149,20.267 14.101,20.247 13.985,20.315C13.793,20.418 13.916,20.726 13.985,20.904C14.163,21.37 14.895,22.191 16.134,22.595C17.23,22.951 19.893,23.15 23.117,21.904C26.725,20.507 29.545,16.626 28.717,13.374C27.888,10.074 22.412,8.986 17.23,10.827C14.149,11.923 10.809,13.648 8.406,15.893C5.551,18.563 5.099,20.884 5.284,21.856C5.948,25.306 10.706,27.551 12.609,29.215C12.513,29.269 12.424,29.317 12.349,29.358C11.397,29.831 7.769,31.727 6.866,33.733C5.839,36.005 7.03,37.635 7.817,37.854C10.261,38.531 12.773,37.313 14.122,35.3C15.47,33.288 15.306,30.673 14.683,29.475C14.676,29.461 14.67,29.447 14.656,29.434C14.902,29.29 15.156,29.139 15.402,28.996C15.888,28.708 16.367,28.441 16.778,28.222C16.545,28.859 16.374,29.618 16.292,30.714C16.189,32.001 16.716,33.671 17.408,34.328C17.716,34.616 18.079,34.623 18.311,34.623C19.119,34.623 19.482,33.952 19.886,33.158C20.379,32.186 20.824,31.056 20.824,31.056C20.824,31.056 20.269,34.109 21.775,34.109C22.323,34.109 22.877,33.397 23.124,33.035L23.124,33.041C23.124,33.041 23.138,33.021 23.165,32.973C23.22,32.884 23.254,32.829 23.254,32.829L23.254,32.815C23.473,32.432 23.966,31.563 24.698,30.118C25.643,28.256 26.553,25.929 26.553,25.929C26.553,25.929 26.636,26.497 26.916,27.442C27.08,27.996 27.423,28.605 27.697,29.194C27.478,29.502 27.341,29.673 27.341,29.673L27.347,29.68C27.17,29.913 26.978,30.166 26.766,30.412C26.019,31.303 25.13,32.323 25.006,32.617C24.862,32.966 24.897,33.219 25.171,33.425C25.369,33.575 25.725,33.596 26.088,33.575C26.759,33.527 27.231,33.363 27.464,33.26C27.827,33.13 28.251,32.932 28.648,32.637C29.381,32.097 29.826,31.323 29.785,30.303C29.764,29.742 29.579,29.18 29.353,28.653C29.422,28.557 29.483,28.462 29.552,28.366C30.709,26.675 31.605,24.82 31.605,24.82C31.605,24.82 31.688,25.388 31.968,26.333C32.105,26.812 32.386,27.332 32.632,27.839C31.544,28.722 30.873,29.749 30.633,30.419C30.202,31.665 30.538,32.227 31.174,32.357C31.462,32.418 31.872,32.282 32.174,32.151C32.557,32.028 33.009,31.816 33.44,31.501C34.172,30.96 34.878,30.207 34.837,29.187C34.816,28.722 34.693,28.263 34.522,27.818C35.446,27.435 36.637,27.223 38.157,27.401C41.415,27.784 42.059,29.817 41.935,30.673C41.812,31.528 41.128,31.994 40.902,32.138C40.676,32.282 40.6,32.329 40.621,32.432C40.649,32.583 40.758,32.576 40.95,32.548C41.217,32.501 42.661,31.857 42.723,30.283C42.825,28.27 40.909,26.072 37.52,26.093ZM12.383,34.568C11.301,35.745 9.795,36.19 9.145,35.814C8.447,35.41 8.721,33.671 10.049,32.425C10.857,31.665 11.897,30.96 12.588,30.529C12.746,30.433 12.979,30.296 13.259,30.125C13.307,30.098 13.335,30.084 13.335,30.084C13.389,30.05 13.444,30.016 13.499,29.981C13.985,31.761 13.519,33.329 12.383,34.568ZM20.255,29.215C19.879,30.132 19.092,32.48 18.613,32.35C18.202,32.24 17.949,30.46 18.53,28.701C18.825,27.818 19.448,26.764 19.811,26.353C20.399,25.696 21.049,25.477 21.207,25.744C21.406,26.093 20.488,28.639 20.255,29.215ZM26.752,32.323C26.594,32.405 26.444,32.459 26.375,32.418C26.327,32.391 26.444,32.282 26.444,32.282C26.444,32.282 27.259,31.405 27.58,31.008C27.765,30.775 27.984,30.502 28.217,30.194L28.217,30.283C28.217,31.33 27.204,32.035 26.752,32.323ZM31.763,31.179C31.646,31.097 31.667,30.823 32.057,29.968C32.208,29.632 32.564,29.071 33.173,28.53C33.242,28.749 33.29,28.961 33.283,29.16C33.276,30.481 32.331,30.974 31.763,31.179Z" style="fill:white;"/>
                    </g>
                </g>
                <g>
                    <path d="M48,11.25L48,36.75C48,42.959 42.959,48 36.75,48L11.25,48C5.041,48 0,42.959 0,36.75L0,11.25C0,5.041 5.041,0 11.25,0L36.75,0C42.959,0 48,5.041 48,11.25Z" style="fill:rgb(205,103,153);"/>
                    <g>
                        <path d="M37.52,26.093C36.212,26.1 35.076,26.415 34.125,26.88C33.776,26.189 33.426,25.573 33.365,25.121C33.296,24.594 33.214,24.272 33.296,23.642C33.378,23.012 33.748,22.116 33.741,22.047C33.734,21.979 33.659,21.657 32.906,21.65C32.153,21.644 31.503,21.794 31.427,21.993C31.352,22.191 31.208,22.643 31.113,23.108C30.983,23.793 29.606,26.237 28.819,27.517C28.566,27.017 28.347,26.579 28.299,26.23C28.231,25.703 28.148,25.381 28.231,24.751C28.313,24.121 28.682,23.225 28.676,23.156C28.669,23.088 28.593,22.766 27.84,22.759C27.087,22.752 26.437,22.903 26.362,23.102C26.286,23.3 26.204,23.766 26.047,24.217C25.889,24.669 24.062,28.749 23.582,29.803C23.336,30.344 23.124,30.775 22.973,31.07C22.973,31.07 22.966,31.09 22.946,31.124C22.816,31.378 22.74,31.515 22.74,31.515L22.74,31.522C22.638,31.706 22.528,31.877 22.473,31.877C22.432,31.877 22.357,31.385 22.487,30.714C22.761,29.297 23.411,27.092 23.405,27.017C23.405,26.976 23.528,26.593 22.98,26.394C22.446,26.196 22.254,26.524 22.206,26.524C22.159,26.524 22.124,26.641 22.124,26.641C22.124,26.641 22.72,24.163 20.988,24.163C19.906,24.163 18.414,25.347 17.675,26.415C17.209,26.668 16.217,27.209 15.156,27.791C14.752,28.017 14.334,28.243 13.944,28.455C13.916,28.427 13.889,28.393 13.862,28.366C11.767,26.127 7.892,24.546 8.057,21.541C8.118,20.445 8.495,17.57 15.498,14.079C21.262,11.238 25.848,12.025 26.642,13.771C27.779,16.263 24.185,20.89 18.229,21.561C15.956,21.815 14.765,20.938 14.464,20.61C14.149,20.267 14.101,20.247 13.985,20.315C13.793,20.418 13.916,20.726 13.985,20.904C14.163,21.37 14.895,22.191 16.134,22.595C17.23,22.951 19.893,23.15 23.117,21.904C26.725,20.507 29.545,16.626 28.717,13.374C27.888,10.074 22.412,8.986 17.23,10.827C14.149,11.923 10.809,13.648 8.406,15.893C5.551,18.563 5.099,20.884 5.284,21.856C5.948,25.306 10.706,27.551 12.609,29.215C12.513,29.269 12.424,29.317 12.349,29.358C11.397,29.831 7.769,31.727 6.866,33.733C5.839,36.005 7.03,37.635 7.817,37.854C10.261,38.531 12.773,37.313 14.122,35.3C15.47,33.288 15.306,30.673 14.683,29.475C14.676,29.461 14.67,29.447 14.656,29.434C14.902,29.29 15.156,29.139 15.402,28.996C15.888,28.708 16.367,28.441 16.778,28.222C16.545,28.859 16.374,29.618 16.292,30.714C16.189,32.001 16.716,33.671 17.408,34.328C17.716,34.616 18.079,34.623 18.311,34.623C19.119,34.623 19.482,33.952 19.886,33.158C20.379,32.186 20.824,31.056 20.824,31.056C20.824,31.056 20.269,34.109 21.775,34.109C22.323,34.109 22.877,33.397 23.124,33.035L23.124,33.041C23.124,33.041 23.138,33.021 23.165,32.973C23.22,32.884 23.254,32.829 23.254,32.829L23.254,32.815C23.473,32.432 23.966,31.563 24.698,30.118C25.643,28.256 26.553,25.929 26.553,25.929C26.553,25.929 26.636,26.497 26.916,27.442C27.08,27.996 27.423,28.605 27.697,29.194C27.478,29.502 27.341,29.673 27.341,29.673L27.347,29.68C27.17,29.913 26.978,30.166 26.766,30.412C26.019,31.303 25.13,32.323 25.006,32.617C24.862,32.966 24.897,33.219 25.171,33.425C25.369,33.575 25.725,33.596 26.088,33.575C26.759,33.527 27.231,33.363 27.464,33.26C27.827,33.13 28.251,32.932 28.648,32.637C29.381,32.097 29.826,31.323 29.785,30.303C29.764,29.742 29.579,29.18 29.353,28.653C29.422,28.557 29.483,28.462 29.552,28.366C30.709,26.675 31.605,24.82 31.605,24.82C31.605,24.82 31.688,25.388 31.968,26.333C32.105,26.812 32.386,27.332 32.632,27.839C31.544,28.722 30.873,29.749 30.633,30.419C30.202,31.665 30.538,32.227 31.174,32.357C31.462,32.418 31.872,32.282 32.174,32.151C32.557,32.028 33.009,31.816 33.44,31.501C34.172,30.96 34.878,30.207 34.837,29.187C34.816,28.722 34.693,28.263 34.522,27.818C35.446,27.435 36.637,27.223 38.157,27.401C41.415,27.784 42.059,29.817 41.935,30.673C41.812,31.528 41.128,31.994 40.902,32.138C40.676,32.282 40.6,32.329 40.621,32.432C40.649,32.583 40.758,32.576 40.95,32.548C41.217,32.501 42.661,31.857 42.723,30.283C42.825,28.27 40.909,26.072 37.52,26.093ZM12.383,34.568C11.301,35.745 9.795,36.19 9.145,35.814C8.447,35.41 8.721,33.671 10.049,32.425C10.857,31.665 11.897,30.96 12.588,30.529C12.746,30.433 12.979,30.296 13.259,30.125C13.307,30.098 13.335,30.084 13.335,30.084C13.389,30.05 13.444,30.016 13.499,29.981C13.985,31.761 13.519,33.329 12.383,34.568ZM20.255,29.215C19.879,30.132 19.092,32.48 18.613,32.35C18.202,32.24 17.949,30.46 18.53,28.701C18.825,27.818 19.448,26.764 19.811,26.353C20.399,25.696 21.049,25.477 21.207,25.744C21.406,26.093 20.488,28.639 20.255,29.215ZM26.752,32.323C26.594,32.405 26.444,32.459 26.375,32.418C26.327,32.391 26.444,32.282 26.444,32.282C26.444,32.282 27.259,31.405 27.58,31.008C27.765,30.775 27.984,30.502 28.217,30.194L28.217,30.283C28.217,31.33 27.204,32.035 26.752,32.323ZM31.763,31.179C31.646,31.097 31.667,30.823 32.057,29.968C32.208,29.632 32.564,29.071 33.173,28.53C33.242,28.749 33.29,28.961 33.283,29.16C33.276,30.481 32.331,30.974 31.763,31.179Z" style="fill:white;"/>
                    </g>
                </g>
            </g>
        </g>
    </g>
</svg>
