<?xml version="1.0" encoding="UTF-8" standalone="no"?>
<!DOCTYPE svg PUBLIC "-//W3C//DTD SVG 1.1//EN" "http://www.w3.org/Graphics/SVG/1.1/DTD/svg11.dtd">
<svg width="100%" height="100%" viewBox="0 0 49 49" version="1.1" xmlns="http://www.w3.org/2000/svg" xmlns:xlink="http://www.w3.org/1999/xlink" xml:space="preserve" xmlns:serif="http://www.serif.com/" style="fill-rule:evenodd;clip-rule:evenodd;stroke-linejoin:round;stroke-miterlimit:2;">
    <g transform="matrix(1,0,0,1,-319.377,-1058.52)">
        <g transform="matrix(1,0,0,1,319.377,1058.52)">
            <g>
                <clipPath id="_clip1">
                    <path d="M48,11.25L48,36.75C48,42.959 42.959,48 36.75,48L11.25,48C5.041,48 0,42.959 0,36.75L0,11.25C0,5.041 5.041,0 11.25,0L36.75,0C42.959,0 48,5.041 48,11.25Z"/>
                </clipPath>
                <g clip-path="url(#_clip1)">
                    <path d="M11.25,0C5.037,0 0,5.037 0,11.25L0,36.75C0,42.963 5.037,48 11.25,48L31.586,48C31.253,47.017 30.992,45.46 30.844,43.683C30.718,42.155 30.676,40.464 30.746,38.833C30.727,38.591 30.716,38.435 30.716,38.435C30.716,38.435 30.364,36.07 29.859,34.128C29.635,33.266 29.38,32.486 29.112,32.034C28.975,31.801 29.127,30.844 29.512,29.425C29.737,29.813 30.686,31.475 30.877,32.01C31.092,32.616 31.137,32.789 31.137,32.789C31.137,32.789 30.616,30.113 29.762,28.552C29.949,27.92 30.173,27.223 30.426,26.477C30.722,26.996 31.394,28.187 31.637,28.751C31.66,28.804 31.68,28.853 31.695,28.893C31.729,28.991 31.758,29.074 31.784,29.15C31.921,29.548 31.955,29.674 31.955,29.674C31.955,29.674 31.904,29.414 31.81,29.013C31.77,28.844 31.72,28.645 31.665,28.433C31.449,27.606 31.122,26.524 30.704,25.676C31.778,20.089 35.238,12.774 38.964,8.825C39.286,8.485 39.608,8.167 39.932,7.88C42.11,5.949 44.318,5.297 46.141,6.921C47.459,8.096 47.999,9.719 48,11.588L48,11.25C48,5.037 42.963,0 36.75,0L11.25,0Z" style="fill:rgb(217,217,217);fill-rule:nonzero;"/>
                    <path d="M11.25,0C5.037,0 0,5.037 0,11.25L0,36.75C0,42.963 5.037,48 11.25,48L31.586,48C31.253,47.017 30.992,45.46 30.844,43.683C30.718,42.155 30.676,40.464 30.746,38.833C30.727,38.591 30.716,38.435 30.716,38.435C30.716,38.435 30.364,36.07 29.859,34.128C29.635,33.266 29.38,32.486 29.112,32.034C28.975,31.801 29.127,30.844 29.512,29.425C29.737,29.813 30.686,31.475 30.877,32.01C31.092,32.616 31.137,32.789 31.137,32.789C31.137,32.789 30.616,30.113 29.762,28.552C29.949,27.92 30.173,27.223 30.426,26.477C30.722,26.996 31.394,28.187 31.637,28.751C31.66,28.804 31.68,28.853 31.695,28.893C31.729,28.991 31.758,29.074 31.784,29.15C31.921,29.548 31.955,29.674 31.955,29.674C31.955,29.674 31.904,29.414 31.81,29.013C31.77,28.844 31.72,28.645 31.665,28.433C31.449,27.606 31.122,26.524 30.704,25.676C31.778,20.089 35.238,12.774 38.964,8.825C39.286,8.485 39.608,8.167 39.932,7.88C42.11,5.949 44.318,5.297 46.141,6.921C47.459,8.096 47.999,9.719 48,11.588L48,11.25C48,5.037 42.963,0 36.75,0L11.25,0Z" style="fill:url(#_Linear2);fill-rule:nonzero;"/>
                    <path d="M46.141,6.921C44.318,5.297 42.11,5.949 39.932,7.88C39.608,8.167 39.286,8.485 38.964,8.825C35.238,12.774 31.778,20.089 30.704,25.676C31.122,26.524 31.449,27.606 31.665,28.433C31.72,28.645 31.77,28.844 31.81,29.013C31.904,29.414 31.955,29.674 31.955,29.674C31.955,29.674 31.921,29.548 31.784,29.15C31.758,29.074 31.729,28.991 31.695,28.893C31.68,28.853 31.66,28.804 31.637,28.751C31.394,28.187 30.722,26.996 30.426,26.477C30.173,27.223 29.949,27.92 29.762,28.552C30.616,30.113 31.137,32.789 31.137,32.789C31.137,32.789 31.092,32.616 30.877,32.01C30.686,31.475 29.737,29.813 29.512,29.425C29.127,30.844 28.975,31.801 29.112,32.034C29.38,32.486 29.635,33.266 29.859,34.128C30.364,36.07 30.716,38.435 30.716,38.435C30.716,38.435 30.727,38.591 30.746,38.833C30.676,40.464 30.718,42.155 30.844,43.683C31.012,45.707 31.327,47.445 31.729,48.375L32.002,48.226C31.412,46.394 31.172,43.992 31.277,41.222C31.436,36.988 32.411,31.882 34.214,26.56C37.259,18.526 41.483,12.08 45.35,9.002C41.826,12.181 37.056,22.472 35.628,26.283C34.03,30.55 32.897,34.555 32.214,38.391C33.392,34.794 37.201,33.248 37.201,33.248C37.201,33.248 39.069,30.947 41.252,27.659C39.945,27.957 37.797,28.467 37.078,28.769C36.017,29.213 35.731,29.365 35.731,29.365C35.731,29.365 39.168,27.274 42.116,26.328C46.172,19.948 50.59,10.885 46.141,6.921" style="fill:rgb(150,150,150);fill-rule:nonzero;"/>
                    <path d="M5.348,9.188C4.773,9.188 4.306,9.355 3.948,9.691C3.59,10.026 3.408,10.466 3.408,11.005C3.408,11.285 3.454,11.539 3.542,11.773C3.631,12.007 3.77,12.223 3.956,12.419C4.142,12.615 4.514,12.881 5.068,13.22C5.749,13.63 6.194,13.962 6.408,14.222C6.622,14.482 6.728,14.754 6.728,15.037C6.728,15.417 6.602,15.72 6.341,15.948C6.08,16.176 5.732,16.29 5.299,16.29C4.843,16.29 4.446,16.131 4.104,15.816C3.763,15.5 3.591,15.083 3.587,14.56L3.375,14.56L3.375,16.459L3.587,16.459C3.652,16.279 3.742,16.187 3.859,16.187C3.915,16.187 4.047,16.225 4.253,16.297C4.754,16.473 5.166,16.558 5.489,16.558C6.046,16.558 6.522,16.365 6.918,15.974C7.314,15.583 7.514,15.111 7.514,14.56C7.514,14.133 7.382,13.753 7.123,13.422C6.864,13.09 6.36,12.704 5.608,12.261C4.961,11.877 4.54,11.565 4.346,11.321C4.152,11.078 4.052,10.809 4.052,10.513C4.052,10.194 4.171,9.937 4.406,9.746C4.641,9.554 4.948,9.459 5.333,9.459C5.766,9.459 6.126,9.586 6.412,9.841C6.697,10.097 6.862,10.451 6.911,10.906L7.123,10.906L7.123,9.261L6.926,9.261C6.901,9.345 6.879,9.398 6.859,9.423C6.839,9.446 6.8,9.459 6.743,9.459C6.675,9.459 6.552,9.431 6.378,9.375C6.006,9.251 5.663,9.188 5.348,9.188ZM12.281,9.188C11.581,9.188 10.946,9.35 10.372,9.676C9.797,10.001 9.342,10.452 9.006,11.027C8.67,11.602 8.504,12.213 8.504,12.863C8.504,13.738 8.794,14.516 9.378,15.199C9.963,15.881 10.664,16.306 11.477,16.47C11.663,16.565 11.929,16.812 12.278,17.211C12.67,17.662 13.002,17.987 13.275,18.181C13.548,18.375 13.842,18.516 14.153,18.61C14.465,18.704 14.801,18.75 15.166,18.75C15.607,18.75 16.001,18.674 16.349,18.519L16.271,18.328C16.069,18.4 15.854,18.434 15.627,18.434C15.319,18.434 15.008,18.334 14.697,18.133C14.385,17.932 13.996,17.547 13.532,16.98C13.313,16.708 13.163,16.537 13.078,16.47C13.967,16.298 14.699,15.873 15.27,15.192C15.84,14.511 16.126,13.734 16.126,12.863C16.126,11.83 15.753,10.961 15.013,10.252C14.272,9.544 13.362,9.188 12.281,9.188ZM16.61,9.188L16.621,9.412C17.087,9.412 17.348,9.547 17.406,9.819C17.428,9.917 17.438,10.096 17.44,10.355L17.436,15.309C17.432,15.679 17.379,15.915 17.276,16.018C17.173,16.12 16.999,16.183 16.747,16.209L16.736,16.433L21.381,16.433L21.5,15.309L21.288,15.309C21.227,15.615 21.089,15.835 20.867,15.959C20.646,16.085 20.254,16.146 19.688,16.146L19.248,16.146C18.739,16.146 18.444,15.965 18.366,15.599C18.35,15.527 18.345,15.449 18.344,15.364L18.363,10.355C18.363,9.986 18.41,9.738 18.508,9.617C18.607,9.496 18.785,9.429 19.044,9.412L19.033,9.188L16.61,9.188ZM12.356,9.459C13.145,9.459 13.789,9.766 14.287,10.385C14.785,11.004 15.032,11.852 15.032,12.926C15.032,13.944 14.781,14.759 14.28,15.372C13.778,15.984 13.111,16.29 12.281,16.29C11.484,16.29 10.838,15.975 10.342,15.342C9.847,14.71 9.602,13.888 9.602,12.878C9.602,11.84 9.85,11.009 10.35,10.388C10.849,9.768 11.518,9.459 12.356,9.459ZM23.037,10.524C22.924,10.524 22.837,10.562 22.773,10.638C22.707,10.714 22.687,10.806 22.71,10.917C22.732,11.025 22.794,11.12 22.892,11.2C22.99,11.28 23.095,11.321 23.208,11.321C23.318,11.321 23.402,11.28 23.462,11.2C23.522,11.12 23.54,11.025 23.517,10.917C23.494,10.806 23.435,10.714 23.342,10.638C23.249,10.562 23.147,10.524 23.037,10.524ZM26.1,11.284C25.908,12.015 25.49,12.41 24.85,12.474L24.857,12.683L25.605,12.683L25.59,15.159C25.592,15.582 25.605,15.863 25.635,16.007C25.709,16.35 25.936,16.525 26.316,16.525C26.866,16.525 27.443,16.194 28.047,15.533L27.864,15.379C27.429,15.814 27.043,16.033 26.707,16.033C26.5,16.033 26.372,15.915 26.324,15.684C26.31,15.627 26.305,15.562 26.305,15.485L26.312,12.683L27.455,12.683L27.444,12.349L26.316,12.349L26.316,11.284L26.1,11.284ZM30.518,12.217C29.879,12.217 29.359,12.523 28.955,13.131C28.553,13.741 28.428,14.416 28.586,15.159C28.679,15.594 28.865,15.931 29.148,16.168C29.432,16.406 29.791,16.525 30.22,16.525C30.62,16.525 31.177,16.425 31.411,16.223C31.646,16.022 31.863,15.697 32.063,15.25L31.902,15.085C31.584,15.664 30.94,15.955 30.455,15.955C29.787,15.955 29.379,15.594 29.227,14.876C29.207,14.784 29.192,14.686 29.182,14.582C29.976,14.458 30.577,14.238 30.983,13.921C31.389,13.603 31.796,13.267 31.72,12.911C31.675,12.7 31.564,12.534 31.393,12.408C31.219,12.283 30.769,12.217 30.518,12.217ZM23.532,12.243L22.155,12.555L22.155,12.797L22.631,12.739C22.862,12.739 22.998,12.842 23.041,13.047C23.055,13.116 23.064,13.212 23.067,13.333L23.052,15.555C23.048,15.863 23.014,16.041 22.944,16.095C22.874,16.149 22.689,16.176 22.39,16.176L22.382,16.385L24.567,16.385L24.563,16.176C24.259,16.176 24.063,16.152 23.975,16.106C23.889,16.06 23.83,15.977 23.804,15.849C23.784,15.757 23.775,15.598 23.774,15.379L23.782,12.243L23.532,12.243ZM30.168,12.654C30.301,12.654 30.43,12.705 30.559,12.805C30.686,12.904 30.764,13.015 30.79,13.135C30.914,13.726 30.383,14.134 29.189,14.362C29.155,13.931 29.231,13.54 29.424,13.187C29.615,12.833 29.865,12.654 30.168,12.654Z" style="fill:rgb(124,124,124);fill-rule:nonzero;"/>
                </g>
            </g>
        </g>
    </g>
    <defs>
        <linearGradient id="_Linear2" x1="0" y1="0" x2="1" y2="0" gradientUnits="userSpaceOnUse" gradientTransform="matrix(2.71555e-15,44.3483,-44.3483,2.71555e-15,27.6776,0.982294)"><stop offset="0" style="stop-color:white;stop-opacity:1"/><stop offset="0.92" style="stop-color:rgb(187,187,187);stop-opacity:1"/><stop offset="1" style="stop-color:rgb(187,187,187);stop-opacity:1"/></linearGradient>
    </defs>
</svg>
