<?xml version="1.0" encoding="UTF-8" standalone="no"?>
<!DOCTYPE svg PUBLIC "-//W3C//DTD SVG 1.1//EN" "http://www.w3.org/Graphics/SVG/1.1/DTD/svg11.dtd">
<svg width="100%" height="100%" viewBox="0 0 48 48" version="1.1" xmlns="http://www.w3.org/2000/svg" xmlns:xlink="http://www.w3.org/1999/xlink" xml:space="preserve" xmlns:serif="http://www.serif.com/" style="fill-rule:evenodd;clip-rule:evenodd;stroke-linejoin:round;stroke-miterlimit:2;">
    <g transform="matrix(1,0,0,1,-615.379,-1041.68)">
        <g transform="matrix(1,0,0,1,615.379,1041.68)">
            <path d="M48,11.25L48,36.75C48,42.959 42.959,48 36.75,48L11.25,48C5.041,48 0,42.959 0,36.75L0,11.25C0,5.041 5.041,0 11.25,0L36.75,0C42.959,0 48,5.041 48,11.25Z" style="fill:rgb(0,115,170);"/>
            <path d="M7.915,23.999C7.915,30.365 11.615,35.867 16.98,38.475L9.308,17.453C8.415,19.453 7.915,21.667 7.915,23.999Z" style="fill:white;"/>
            <path d="M34.858,23.187C34.858,21.2 34.144,19.823 33.531,18.751C32.716,17.426 31.952,16.304 31.952,14.979C31.952,13.501 33.073,12.125 34.653,12.125C34.724,12.125 34.792,12.133 34.861,12.137C31.999,9.516 28.187,7.915 23.999,7.915C18.38,7.915 13.437,10.798 10.561,15.165C10.938,15.176 11.294,15.184 11.596,15.184C13.278,15.184 15.882,14.98 15.882,14.98C16.749,14.929 16.852,16.202 15.985,16.305C15.985,16.305 15.114,16.408 14.145,16.458L20.002,33.881L23.522,23.324L21.016,16.458C20.15,16.407 19.329,16.304 19.329,16.304C18.462,16.254 18.564,14.928 19.431,14.979C19.431,14.979 22.087,15.184 23.667,15.184C25.35,15.184 27.954,14.979 27.954,14.979C28.822,14.928 28.924,16.202 28.057,16.304C28.057,16.304 27.184,16.407 26.216,16.458L32.029,33.748L33.633,28.387C34.329,26.162 34.858,24.564 34.858,23.187Z" style="fill:white;"/>
            <path d="M24.282,25.406L19.456,39.429C20.897,39.853 22.421,40.084 24,40.084C25.873,40.084 27.669,39.761 29.341,39.173C29.298,39.104 29.258,39.031 29.226,38.951L24.282,25.406Z" style="fill:white;"/>
            <path d="M38.113,16.282C38.182,16.794 38.221,17.344 38.221,17.936C38.221,19.568 37.916,21.403 36.998,23.697L32.085,37.902C36.867,35.114 40.083,29.933 40.083,23.999C40.084,21.203 39.369,18.573 38.113,16.282Z" style="fill:white;"/>
            <path d="M24,5.25C13.661,5.25 5.25,13.661 5.25,23.999C5.25,34.338 13.661,42.749 24,42.749C34.337,42.749 42.75,34.338 42.75,23.999C42.75,13.661 34.337,5.25 24,5.25ZM24,41.889C14.135,41.889 6.11,33.864 6.11,23.999C6.11,14.135 14.135,6.11 24,6.11C33.863,6.11 41.888,14.135 41.888,23.999C41.888,33.864 33.863,41.889 24,41.889Z" style="fill:white;"/>
        </g>
    </g>
</svg>
